<svg xmlns="http://www.w3.org/2000/svg" viewBox="0 0 586.89 200.829">
    <defs>
        <linearGradient id="a" x1="13.208" y1="106.081" x2="158.978" y2="106.081" gradientUnits="userSpaceOnUse">
            <stop offset="0" stop-color="#c83228"/>
            <stop offset=".342" stop-color="#d1392c"/>
            <stop offset=".895" stop-color="#e94c38"/>
            <stop offset="1" stop-color="#ee503b"/>
        </linearGradient>
    </defs>
    <path d="M13.208 85.831V192.3s.41 14.2 13.364 14.2c12.545 0 13.215-14.363 13.215-14.363l.037-84.525L72.639 70.26l13.755 15.655a6.632 6.632 0 0 0 4.43 2.288c1.01 0 24.343.037 24.343.037L95.022 99.947l3.333 5.774 60.622-35-3.333-5.774-30.474 17.72a18.7 18.7 0 0 0 .5-3.362c0-8.008-7.482-9.152-7.482-9.152L95.03 70.2 70.685 42.234s8.618 3.156 15.9-5.127c4.095-4.661 8.227-16.4-.261-26.056-7.5-8.537-18.227-5.7-23.154.085-5.844 6.864-6.961 18.854.186 26.4a10 10 0 0 0-4.058-.8c-2.42 0-5.9.869-7.743 2.966s-35.308 40.1-36.239 41.161a9.282 9.282 0 0 0-2.108 4.968z" transform="translate(-13.208 -5.667)" fill="url(#a)" data-name="Layer 3"/>
    <g data-name="Layer 2" fill="#fff">
        <path d="M155.748 34.541h15.444V150h-15.444v-6.973q-9.092 8.887-20.576 8.887a29.294 29.294 0 0 1-22.7-9.98q-8.956-10.185-8.955-25.43a129.34 129.34 0 0 1 1.438-18.671l32-18.833s12.637 5.763 18.789 12.143zm-36.5 81.963q0 9.571 5.127 15.586a16.79 16.79 0 0 0 13.262 6.084 17.65 17.65 0 0 0 13.809-5.879q5.263-6.083 5.264-15.449t-5.264-15.449a17.4 17.4 0 0 0-13.672-5.947 17 17 0 0 0-13.262 6.016 22.174 22.174 0 0 0-5.268 15.038zM190.611 83.418h15.381v5.947a29.372 29.372 0 0 1 7.52-6.084 17.25 17.25 0 0 1 7.93-1.709 24.85 24.85 0 0 1 12.714 3.961l-7.041 14.082a14.691 14.691 0 0 0-8.545-3.145q-12.579 0-12.578 19v34.521h-15.381zM291.099 83.418h15.449V150h-15.449v-6.973q-9.5 8.887-20.439 8.887a29.445 29.445 0 0 1-22.832-9.98q-8.956-10.185-8.955-25.43 0-14.971 8.955-24.951a28.867 28.867 0 0 1 22.422-9.98q11.621 0 20.85 9.57zm-36.5 33.086q0 9.571 5.127 15.586a16.79 16.79 0 0 0 13.262 6.084 17.65 17.65 0 0 0 13.804-5.879q5.263-6.083 5.264-15.449t-5.264-15.45a17.4 17.4 0 0 0-13.672-5.947 17 17 0 0 0-13.262 6.016 22.174 22.174 0 0 0-5.266 15.039zM341.892 97.773V150h-15.451V97.773h-5.469V83.418h5.469v-25.7q0-12.577 4.375-17.773 6.015-7.245 17.5-7.246a30.1 30.1 0 0 1 10.322 2.393V50.81l-1.572-.82q-4.991-2.528-8.2-2.529-4.1 0-5.537 2.939-1.437 2.871-1.437 11.074v21.944h16.748v14.355zM388.443 97.773V150h-15.381V97.773H366.5V83.418h6.563V59.013h15.381v24.4h11.963v14.36zM408.541 55.733a10.038 10.038 0 0 1 9.98-9.912 9.689 9.689 0 0 1 7.109 2.939 9.465 9.465 0 0 1 2.939 7.041 9.686 9.686 0 0 1-2.939 7.109 9.461 9.461 0 0 1-7.041 2.939 10.036 10.036 0 0 1-10.048-10.116zm17.705 27.686v66.582h-15.381V83.418zM445.728 83.418h15.449v6.152q8.065-8 18.184-8 11.621 0 18.115 7.314 5.6 6.221 5.605 20.3v40.811h-15.449v-37.183q0-9.844-2.734-13.6-2.666-3.828-9.707-3.828-7.657 0-10.869 5.059-3.145 4.991-3.145 17.432v32.129h-15.449zM586.892 148.427c0 3.145-.8 20.375-1 22.767a57.807 57.807 0 0 1-.854 6.323 28.165 28.165 0 0 1-6.426 12.92q-9.029 10.391-24.82 10.396-13.33 0-21.943-7.178-8.887-7.383-10.254-20.439h15.449a17.487 17.487 0 0 0 2.939 7.588q4.784 6.22 13.945 6.221c6.53 0 17.581-3.02 17.581-21.02v-23.457q-9.161 9.366-21.123 9.365-13.6 0-22.285-9.844-8.751-9.98-8.75-24.951 0-14.561 8.135-24.746 8.75-10.8 23.105-10.8a26.837 26.837 0 0 1 20.918 9.361v-7.52h15.383zm-14.766-31.582q0-9.706-5.2-15.518a17.178 17.178 0 0 0-13.467-5.947 16.558 16.558 0 0 0-13.809 6.494q-4.581 5.811-4.58 15.039 0 9.092 4.58 14.9 4.989 6.357 13.809 6.357t13.945-6.426q4.721-5.806 4.721-14.899zM336.792 159.333v7.682q-5.622-4.7-11.634-4.7a14.818 14.818 0 0 0-11.161 4.759 16.048 16.048 0 0 0-4.564 11.578 15.661 15.661 0 0 0 4.564 11.412 15.075 15.075 0 0 0 11.188 4.647 13.726 13.726 0 0 0 5.817-1.113 16.8 16.8 0 0 0 2.77-1.5 32.8 32.8 0 0 0 3.02-2.285v7.82a23.422 23.422 0 0 1-11.689 3.145 21.563 21.563 0 0 1-15.725-6.43 21.309 21.309 0 0 1-6.485-15.641 22.075 22.075 0 0 1 5.427-14.641 21.612 21.612 0 0 1 17.284-7.876 21.939 21.939 0 0 1 11.188 3.143zM358.3 157.027v36.877h12.636v6.1h-19.121v-42.977zM411.564 189.562h-18.4L388.377 200h-6.985l21.264-45.672L423.168 200h-7.1zm-2.645-6.095l-6.373-14.612-6.68 14.612zM459.679 163.433l-5.261 3.117a9.041 9.041 0 0 0-2.811-3.34 6.558 6.558 0 0 0-3.59-.891 6.636 6.636 0 0 0-4.481 1.53 4.746 4.746 0 0 0-1.781 3.785q0 3.146 4.676 5.066l4.286 1.753a18.3 18.3 0 0 1 7.654 5.163 11.64 11.64 0 0 1 2.421 7.47 13.129 13.129 0 0 1-3.952 9.8 13.567 13.567 0 0 1-9.881 3.9 13.215 13.215 0 0 1-9.24-3.312 15.25 15.25 0 0 1-4.48-9.323l6.568-1.447q.445 3.785 1.559 5.232a7.406 7.406 0 0 0 10.883.751 7.026 7.026 0 0 0 2-5.148 7.208 7.208 0 0 0-.349-2.3 5.844 5.844 0 0 0-1.085-1.921 8.71 8.71 0 0 0-1.906-1.642 18.457 18.457 0 0 0-2.783-1.462l-4.147-1.725q-8.823-3.729-8.823-10.91a10.352 10.352 0 0 1 3.7-8.1 13.373 13.373 0 0 1 9.212-3.284q7.438-.003 11.611 7.238zM499.751 163.433l-5.261 3.117a9.041 9.041 0 0 0-2.811-3.34 6.558 6.558 0 0 0-3.59-.891 6.636 6.636 0 0 0-4.481 1.53 4.746 4.746 0 0 0-1.781 3.785q0 3.146 4.676 5.066l4.289 1.75a18.3 18.3 0 0 1 7.654 5.163 11.64 11.64 0 0 1 2.421 7.473 13.129 13.129 0 0 1-3.952 9.8 13.567 13.567 0 0 1-9.881 3.9 13.215 13.215 0 0 1-9.24-3.312 15.25 15.25 0 0 1-4.48-9.323l6.568-1.447q.445 3.785 1.559 5.232a7.406 7.406 0 0 0 10.883.751 7.026 7.026 0 0 0 2-5.148 7.208 7.208 0 0 0-.349-2.3 5.844 5.844 0 0 0-1.085-1.921 8.71 8.71 0 0 0-1.906-1.642 18.457 18.457 0 0 0-2.783-1.462l-4.147-1.725q-8.823-3.729-8.823-10.91a10.352 10.352 0 0 1 3.7-8.1 13.373 13.373 0 0 1 9.212-3.284q7.434-.003 11.608 7.238z"/>
    </g>
</svg>
