<svg xmlns="http://www.w3.org/2000/svg" xmlns:xlink="http://www.w3.org/1999/xlink" viewBox="0 0 639.765 175.835"><defs><linearGradient id="linear-gradient" x1="4.667" y1="108.661" x2="125.448" y2="108.661" gradientUnits="userSpaceOnUse"><stop offset="0" stop-color="#c83228"/><stop offset="0.342" stop-color="#d1392c"/><stop offset="0.895" stop-color="#e94c38"/><stop offset="1" stop-color="#ee503b"/></linearGradient></defs><title>DraftingSpec_Logo</title><g id="Layer_3" data-name="Layer 3"><path d="M4.667,37.2V185.509c0,7.891,7.569,7.569,7.569,7.569H125.448V33.335c0-7.246-8.7-8.7-8.7-8.7H37.525V72.465c0,7.246,7.246,7.246,7.246,7.246h8.213s6.28-.966,6.28-6.28V44.446h41.063s4.831.966,4.831,4.831V172.333H32.211s-6.28.483-6.28-6.28V24.639S4.667,20.774,4.667,37.2Z" transform="translate(-4.667 -19.5)" style="fill:url(#linear-gradient)"/></g><g id="Layer_2" data-name="Layer 2"><path d="M248.152,76.418h15.381v5.947a29.372,29.372,0,0,1,7.52-6.084,17.25,17.25,0,0,1,7.93-1.709A24.85,24.85,0,0,1,291.7,78.537l-7.041,14.082a14.691,14.691,0,0,0-8.545-3.145q-12.579,0-12.578,19V143H248.152Z" transform="translate(-4.667 -19.5)" style="fill:#fff"/><path d="M348.641,76.418H364.09V143H348.641v-6.973q-9.5,8.887-20.439,8.887a29.445,29.445,0,0,1-22.832-9.98q-8.956-10.185-8.955-25.43,0-14.971,8.955-24.951a28.867,28.867,0,0,1,22.422-9.98q11.621,0,20.85,9.57Zm-36.5,33.086q0,9.571,5.127,15.586a16.79,16.79,0,0,0,13.262,6.084,17.65,17.65,0,0,0,13.809-5.879q5.263-6.083,5.264-15.449T344.334,94.4a17.4,17.4,0,0,0-13.672-5.947A17,17,0,0,0,317.4,94.465,22.174,22.174,0,0,0,312.137,109.5Z" transform="translate(-4.667 -19.5)" style="fill:#fff"/><path d="M399.432,90.773V143H383.982V90.773h-5.469V76.418h5.469v-25.7q0-12.577,4.375-17.773,6.015-7.245,17.5-7.246a30.1,30.1,0,0,1,10.322,2.393V43.811l-1.572-.82q-4.991-2.528-8.2-2.529-4.1,0-5.537,2.939-1.436,2.871-1.436,11.074V76.418H416.18V90.773Z" transform="translate(-4.667 -19.5)" style="fill:#fff"/><path d="M445.984,90.773V143H430.6V90.773h-6.562V76.418H430.6v-24.4h15.381v24.4h11.963V90.773Z" transform="translate(-4.667 -19.5)" style="fill:#fff"/><path d="M466.082,48.732a10.038,10.038,0,0,1,9.98-9.912,9.689,9.689,0,0,1,7.109,2.939,9.465,9.465,0,0,1,2.939,7.041,9.686,9.686,0,0,1-2.939,7.109,9.461,9.461,0,0,1-7.041,2.939,10.036,10.036,0,0,1-10.049-10.117Zm17.705,27.686V143H468.406V76.418Z" transform="translate(-4.667 -19.5)" style="fill:#fff"/><path d="M503.27,76.418h15.449V82.57q8.065-8,18.184-8,11.621,0,18.115,7.314,5.6,6.221,5.605,20.3V143H545.174V105.813q0-9.844-2.734-13.6-2.666-3.828-9.707-3.828-7.657,0-10.869,5.059-3.145,4.991-3.145,17.432V143H503.27Z" transform="translate(-4.667 -19.5)" style="fill:#fff"/><path d="M644.432,141.428c0,3.145-.8,20.375-1,22.767a57.807,57.807,0,0,1-.854,6.323,28.165,28.165,0,0,1-6.426,12.92q-9.023,10.39-24.814,10.391-13.33,0-21.943-7.178-8.887-7.383-10.254-20.439h15.449a17.487,17.487,0,0,0,2.939,7.588q4.784,6.22,13.945,6.221c6.53,0,17.581-3.02,17.581-21.02V135.549q-9.161,9.366-21.123,9.365-13.6,0-22.285-9.844-8.751-9.98-8.75-24.951,0-14.561,8.135-24.746,8.75-10.8,23.105-10.8a26.837,26.837,0,0,1,20.918,9.365v-7.52h15.381Zm-14.766-31.582q0-9.706-5.2-15.518A17.178,17.178,0,0,0,611,88.381,16.558,16.558,0,0,0,597.2,94.875q-4.581,5.811-4.58,15.039,0,9.092,4.58,14.9,4.989,6.357,13.809,6.357t13.945-6.426Q629.666,118.938,629.666,109.846Z" transform="translate(-4.667 -19.5)" style="fill:#fff"/><path d="M173.5,179.083,183.539,192.9h-5.984l-9.259-13.27h-.882V192.9h-4.892V160.481h5.732q6.425,0,9.28,2.414a8.873,8.873,0,0,1,3.149,7.1,9.211,9.211,0,0,1-1.974,5.92A8.8,8.8,0,0,1,173.5,179.083Zm-6.089-3.716h1.554q6.949,0,6.95-5.312,0-4.976-6.761-4.977h-1.743Z" transform="translate(-4.667 -19.5)" style="fill:#fff"/><path d="M211.459,165.078h-13v7.79h12.619v4.6H198.462V188.3h13v4.6H193.57V160.481h17.889Z" transform="translate(-4.667 -19.5)" style="fill:#fff"/><path d="M224.681,160.481l8.965,22.466,9.091-22.466h5.354l-14.55,34.854-14.214-34.854Z" transform="translate(-4.667 -19.5)" style="fill:#fff"/><path d="M262.175,160.481V192.9h-4.892V160.481Z" transform="translate(-4.667 -19.5)" style="fill:#fff"/><path d="M293.013,165.078h-13v7.79h12.619v4.6H280.017V188.3h13v4.6H275.125V160.481h17.889Z" transform="translate(-4.667 -19.5)" style="fill:#fff"/><path d="M306.193,160.481l8.44,21.668,8.818-23.242,8.44,23.242,8.965-21.668h5.313l-14.488,34.476-8.335-22.97-8.692,22.99-13.773-34.5Z" transform="translate(-4.667 -19.5)" style="fill:#fff"/><path d="M386.536,174.864l5.837,7.055.188-.211q.946-1.028,1.785-2.016t1.617-1.994l3.191,3.275q-.589.839-1.544,1.953t-2.278,2.561l6.006,7.412h-6.09l-3.232-3.969q-4.452,4.6-9.26,4.6a10.426,10.426,0,0,1-7.307-2.751,9.031,9.031,0,0,1-2.939-6.844q0-4.852,4.661-8.062l2.12-1.449a.981.981,0,0,0,.147-.105c.07-.056.168-.133.294-.23q-3.212-3.422-3.213-6.74a7.062,7.062,0,0,1,2.143-5.332,8.679,8.679,0,0,1,11.148-.063A6.531,6.531,0,0,1,392,166.99a6.441,6.441,0,0,1-1.2,3.8A20.39,20.39,0,0,1,386.536,174.864Zm-3.885,2.75-.272.189a23.545,23.545,0,0,0-4.095,3.338,4.065,4.065,0,0,0-1.07,2.666,5.536,5.536,0,0,0,5.313,5.313q2.833,0,6.529-3.717Zm1.051-6.193.4-.295q1.028-.776,1.7-1.354a6.462,6.462,0,0,0,.965-.977,2.934,2.934,0,0,0,.631-1.91,2.7,2.7,0,0,0-.861-2.079,3.262,3.262,0,0,0-2.31-.8,3.194,3.194,0,0,0-2.226.818,2.515,2.515,0,0,0-.9,2,4.425,4.425,0,0,0,1.133,2.813l1.219,1.47A2.245,2.245,0,0,0,383.7,171.42Z" transform="translate(-4.667 -19.5)" style="fill:#fff"/><path d="M447.142,165.31l-3.968,2.352a6.818,6.818,0,0,0-2.121-2.52,4.945,4.945,0,0,0-2.709-.672,5,5,0,0,0-3.38,1.155,3.58,3.58,0,0,0-1.344,2.855q0,2.372,3.527,3.82l3.233,1.323a13.8,13.8,0,0,1,5.773,3.895,8.775,8.775,0,0,1,1.827,5.638A9.9,9.9,0,0,1,445,190.547a10.233,10.233,0,0,1-7.453,2.939,9.971,9.971,0,0,1-6.971-2.5,11.5,11.5,0,0,1-3.381-7.034l4.955-1.092a8.428,8.428,0,0,0,1.176,3.947,5.587,5.587,0,0,0,8.209.567,5.305,5.305,0,0,0,1.512-3.885,5.459,5.459,0,0,0-.262-1.732,4.406,4.406,0,0,0-.819-1.448,6.56,6.56,0,0,0-1.438-1.239,13.811,13.811,0,0,0-2.1-1.1l-3.128-1.3q-6.656-2.812-6.655-8.23a7.808,7.808,0,0,1,2.792-6.109,10.091,10.091,0,0,1,6.95-2.478Q443.991,159.851,447.142,165.31Z" transform="translate(-4.667 -19.5)" style="fill:#fff"/><path d="M463.934,179.735V192.9h-4.892V160.481h5.543a25.053,25.053,0,0,1,6.151.566,8.252,8.252,0,0,1,3.7,2.143,9.226,9.226,0,0,1,2.792,6.887,8.889,8.889,0,0,1-2.98,7.055,11.8,11.8,0,0,1-8.042,2.6Zm0-4.535h1.827q6.738,0,6.739-5.187,0-5.019-6.95-5.019h-1.616Z" transform="translate(-4.667 -19.5)" style="fill:#fff"/><path d="M505.313,165.078h-13v7.79h12.618v4.6H492.316V188.3h13v4.6H487.424V160.481h17.889Z" transform="translate(-4.667 -19.5)" style="fill:#fff"/><path d="M540.854,162.223v5.795a13.566,13.566,0,0,0-8.776-3.548,11.175,11.175,0,0,0-8.42,3.591,12.107,12.107,0,0,0-3.443,8.734,11.815,11.815,0,0,0,3.443,8.607,11.374,11.374,0,0,0,8.441,3.507,10.362,10.362,0,0,0,4.388-.84,12.7,12.7,0,0,0,2.089-1.134,24.657,24.657,0,0,0,2.278-1.722v5.9a17.669,17.669,0,0,1-8.818,2.373,16.273,16.273,0,0,1-11.862-4.85,16.082,16.082,0,0,1-4.893-11.8,16.647,16.647,0,0,1,4.094-11.043,16.3,16.3,0,0,1,13.039-5.942A16.558,16.558,0,0,1,540.854,162.223Z" transform="translate(-4.667 -19.5)" style="fill:#fff"/><path d="M570.516,165.31l-3.968,2.352a6.818,6.818,0,0,0-2.121-2.52,4.945,4.945,0,0,0-2.709-.672,5,5,0,0,0-3.38,1.155,3.58,3.58,0,0,0-1.344,2.855q0,2.372,3.527,3.82l3.233,1.323a13.8,13.8,0,0,1,5.773,3.895,8.775,8.775,0,0,1,1.827,5.638,9.9,9.9,0,0,1-2.981,7.391,10.233,10.233,0,0,1-7.453,2.939,9.971,9.971,0,0,1-6.971-2.5,11.5,11.5,0,0,1-3.381-7.034l4.955-1.092a8.428,8.428,0,0,0,1.176,3.947,5.587,5.587,0,0,0,8.209.567,5.305,5.305,0,0,0,1.512-3.885,5.459,5.459,0,0,0-.262-1.732,4.406,4.406,0,0,0-.819-1.448,6.56,6.56,0,0,0-1.438-1.239,13.811,13.811,0,0,0-2.1-1.1l-3.128-1.3q-6.656-2.812-6.655-8.23a7.808,7.808,0,0,1,2.792-6.109,10.091,10.091,0,0,1,6.95-2.478Q567.365,159.851,570.516,165.31Z" transform="translate(-4.667 -19.5)" style="fill:#fff"/><text transform="translate(151.333 124.167)" style="font-size:141px;fill:#fff;font-family:Futura-Medium, Futura;letter-spacing:0.11999944592198583em">d</text></g></svg>